<svg id="Слой_1" data-name="Слой 1" xmlns="http://www.w3.org/2000/svg" viewBox="0 0 150 55"><defs><style>.cls-1{fill:#fa990f;}.cls-2{fill:#f45812;}.cls-3{fill:#797736;}.cls-4{fill:#aed649;}.cls-5{fill:#9dc517;}</style></defs><title>logo</title><polygon class="cls-1" points="30.91 0 23.11 0 7.68 0 -0.12 0 -0.12 12.51 7.68 12.51 7.68 43.84 23.11 43.84 23.11 12.51 30.91 12.51 30.91 0"/><polygon class="cls-1" points="27.13 48.01 9.31 30.81 44.94 30.81 27.13 48.01"/><polygon class="cls-2" points="23.13 30.81 9.33 30.81 23.13 44.13 23.13 30.81"/><polygon class="cls-1" points="40.45 48.01 22.63 30.81 58.26 30.81 40.45 48.01"/><polygon class="cls-1" points="80.78 21.64 90.19 21.64 90.19 15.96 75.12 15.96 74.63 15.96 65.62 15.96 59.98 21.6 59.98 15.96 59.97 15.96 48.85 15.96 44.42 15.96 44.42 44.15 59.97 44.15 59.97 28.63 74.63 28.63 74.63 44.15 80.78 44.15 80.78 39.96 80.78 21.64"/><polygon class="cls-2" points="44.94 30.81 22.63 30.81 33.78 41.58 44.94 30.81"/><polygon class="cls-2" points="44.42 30.81 58.22 30.81 44.42 44.13 44.42 30.81"/><rect class="cls-1" x="41.79" y="13.32" width="15.59" height="12.67"/><polygon class="cls-2" points="57.38 25.99 57.38 15.96 48.85 15.96 44.42 15.96 44.42 25.99 57.38 25.99"/><polygon class="cls-3" points="90.19 21.64 80.78 21.64 80.78 39.96 80.78 44.15 90.19 44.15 90.19 21.64"/><polygon class="cls-4" points="111.8 40.32 111.8 21.64 90.19 21.64 90.19 44.15 80.78 44.15 80.78 48.77 80.78 54.78 96.29 54.78 96.29 48.77 111.8 48.77 111.8 44.17 107.95 44.17 111.8 40.32"/><polygon class="cls-4" points="128.46 30.17 142.43 16.17 107.95 16.17 121.92 30.17 111.8 40.32 111.8 44.17 142.43 44.17 128.46 30.17"/><polygon class="cls-5" points="107.95 44.17 111.8 44.17 111.8 40.32 107.95 44.17"/></svg>